<svg width="21" height="21" viewBox="0 0 21 21" fill="none" xmlns="http://www.w3.org/2000/svg">
<path d="M9.30689 4.15625C9.30689 4.91046 9.00728 5.63378 8.47397 6.16708C7.94066 6.70039 7.21734 7 6.46313 7C5.70893 7 4.98561 6.70039 4.4523 6.16708C3.91899 5.63378 3.61938 4.91046 3.61938 4.15625C3.61938 3.40204 3.91899 2.67872 4.4523 2.14542C4.98561 1.61211 5.70893 1.3125 6.46313 1.3125C7.21734 1.3125 7.94066 1.61211 8.47397 2.14542C9.00728 2.67872 9.30689 3.40204 9.30689 4.15625Z" fill="#CFC1EB"/>
<path d="M14.875 13.1875C16.5762 13.1875 17.6909 13.2712 18.3779 13.3545H18.3789C18.7188 13.3956 18.9806 13.6269 19.0674 13.9629L19.0938 14.1133C19.1427 14.632 19.1875 15.337 19.1875 16.1875C19.1875 17.038 19.1427 17.743 19.0938 18.2617C19.054 18.6778 18.7674 18.9735 18.3789 19.0205H18.3779C17.6904 19.1038 16.5762 19.1875 14.875 19.1875C13.1737 19.1875 12.0585 19.1034 11.3711 19.0205C10.9826 18.9735 10.696 18.6778 10.6562 18.2617C10.5927 17.5725 10.5616 16.8806 10.5625 16.1885V16.1875C10.5625 15.337 10.6073 14.632 10.6562 14.1133C10.696 13.6972 10.9826 13.4015 11.3711 13.3545H11.3721C12.0596 13.2712 13.1738 13.1875 14.875 13.1875Z" fill="white" stroke="#9284C2"/>
<path d="M2.35469 8.29281C2.57825 7.61906 3.15969 7.15269 3.86756 7.09406C4.46606 7.04375 5.31919 7 6.46369 7C7.60819 7 8.46131 7.04375 9.05981 7.09406C9.76681 7.15269 10.3487 7.61906 10.5723 8.29281C10.8382 9.09795 11.0606 9.91682 11.2386 10.7459L11.1817 10.8903L11.0758 10.9029C9.468 11.0967 8.34187 12.376 8.19881 13.8793C8.12753 14.6466 8.09249 15.4169 8.09381 16.1875C8.09381 17.1246 8.14325 17.9082 8.19881 18.4958C8.23189 18.8402 8.31716 19.1775 8.45169 19.4963C8.33188 19.5515 8.20367 19.5863 8.07237 19.5991C7.60862 19.6459 7.03594 19.6875 6.46369 19.6875C6.04369 19.6875 5.85906 19.6652 5.60794 19.635C5.50296 19.6216 5.3978 19.6097 5.2925 19.5991C4.69312 19.5379 4.2425 19.0479 4.19437 18.4472L3.86756 14.3675C3.7105 14.3601 3.47819 14.3526 3.24194 14.3452C2.93569 14.3351 2.62331 14.3251 2.46406 14.3146C1.76319 14.2708 1.23994 13.6653 1.32044 12.9671C1.5068 11.3783 1.85316 9.81241 2.35425 8.29325L2.35469 8.29281Z" fill="#CFC1EB"/>
<path d="M8.07194 19.5991C7.53765 19.6553 7.0009 19.6847 6.46369 19.6875C5.89056 19.6875 5.75581 19.6459 5.2925 19.5991C4.69312 19.5379 4.2425 19.0479 4.19437 18.4472L3.86756 14.3675C3.50706 14.3509 2.74581 14.3325 2.46406 14.315C1.76319 14.2708 1.23994 13.6653 1.32044 12.9675C1.50677 11.3786 1.85314 9.81255 2.35425 8.29325C2.57781 7.6195 3.15925 7.15312 3.86712 7.0945C4.46606 7.04375 5.31919 7 6.46369 7C7.60819 7 8.46131 7.04375 9.05981 7.09406C9.76681 7.15269 10.3487 7.61906 10.5723 8.29281C10.8118 9.01821 11.0161 9.75481 11.1843 10.5M12.6876 12.6875C12.7786 12.2321 12.961 11.7311 13.1207 11.3435C13.297 10.9147 13.6663 10.5976 14.1269 10.5429C14.3753 10.5143 14.6251 10.5 14.8751 10.5C15.1625 10.5 15.4136 10.5179 15.6232 10.5429C16.0839 10.5976 16.4531 10.9147 16.6294 11.3435C16.7891 11.7311 16.9716 12.2316 17.0626 12.6875" stroke="#9284C2" stroke-width="1.40625" stroke-linecap="round" stroke-linejoin="round"/>
<path d="M9.30689 4.15625C9.30689 4.91046 9.00728 5.63378 8.47397 6.16708C7.94066 6.70039 7.21734 7 6.46313 7C5.70893 7 4.98561 6.70039 4.4523 6.16708C3.91899 5.63378 3.61938 4.91046 3.61938 4.15625C3.61938 3.40204 3.91899 2.67872 4.4523 2.14542C4.98561 1.61211 5.70893 1.3125 6.46313 1.3125C7.21734 1.3125 7.94066 1.61211 8.47397 2.14542C9.00728 2.67872 9.30689 3.40204 9.30689 4.15625ZM10.1587 14.0656C10.2195 13.4291 10.6763 12.9342 11.3115 12.8577C12.0229 12.7715 13.1578 12.6875 14.8749 12.6875C16.5921 12.6875 17.7274 12.7715 18.4384 12.8577C19.0736 12.9342 19.5304 13.4291 19.5912 14.0656C19.6415 14.5981 19.6874 15.3191 19.6874 16.1875C19.6874 17.0559 19.6415 17.7769 19.5912 18.3094C19.5304 18.9459 19.0736 19.4408 18.4384 19.5173C17.727 19.6035 16.5921 19.6875 14.8749 19.6875C13.1578 19.6875 12.0224 19.6031 11.3115 19.5173C10.6763 19.4408 10.2195 18.9459 10.1587 18.3094C10.0936 17.604 10.0615 16.8959 10.0624 16.1875C10.0624 15.3191 10.1084 14.5981 10.1587 14.0656Z" stroke="#9284C2" stroke-width="1.40625" stroke-linecap="round" stroke-linejoin="round"/>
</svg>
