<svg width="21" height="21" viewBox="0 0 21 21" fill="none" xmlns="http://www.w3.org/2000/svg">
<path fill-rule="evenodd" clip-rule="evenodd" d="M10.5001 18.9C12.7279 18.9 14.8645 18.015 16.4398 16.4397C18.0151 14.8644 18.9001 12.7278 18.9001 10.5C18.9001 8.27219 18.0151 6.13561 16.4398 4.56031C14.8645 2.985 12.7279 2.10001 10.5001 2.10001C8.27228 2.10001 6.13571 2.985 4.5604 4.56031C2.9851 6.13561 2.1001 8.27219 2.1001 10.5C2.1001 12.7278 2.9851 14.8644 4.5604 16.4397C6.13571 18.015 8.27228 18.9 10.5001 18.9ZM14.5499 8.60056C14.6108 8.51686 14.6545 8.422 14.6786 8.3214C14.7028 8.22081 14.7069 8.11644 14.6907 8.01426C14.6745 7.91208 14.6384 7.81408 14.5843 7.72587C14.5302 7.63766 14.4593 7.56096 14.3756 7.50016C14.2919 7.43935 14.1971 7.39562 14.0965 7.37147C13.9959 7.34732 13.8915 7.34322 13.7893 7.35941C13.6872 7.37559 13.5892 7.41174 13.501 7.4658C13.4128 7.51986 13.3361 7.59076 13.2752 7.67446L9.6181 12.704L7.6441 10.73C7.57142 10.6548 7.48449 10.5948 7.3884 10.5536C7.2923 10.5124 7.18895 10.4907 7.08439 10.4898C6.97983 10.489 6.87614 10.509 6.77938 10.5486C6.68261 10.5882 6.59472 10.6468 6.52081 10.7207C6.44691 10.7947 6.38847 10.8827 6.34892 10.9795C6.30937 11.0763 6.28949 11.18 6.29045 11.2845C6.29141 11.3891 6.31318 11.4924 6.3545 11.5885C6.39582 11.6845 6.45585 11.7714 6.5311 11.844L9.1561 14.469C9.23656 14.5495 9.33351 14.6116 9.44028 14.651C9.54704 14.6905 9.66109 14.7063 9.77456 14.6974C9.88803 14.6885 9.99823 14.6552 10.0976 14.5996C10.1969 14.544 10.283 14.4676 10.3499 14.3756L14.5499 8.60056Z" fill="#436F9B"/>
</svg>
