<svg width="21" height="21" viewBox="0 0 21 21" fill="none" xmlns="http://www.w3.org/2000/svg">
<path d="M14.3589 9.625H17.5001V7.875H14.3589L11.7339 5.25C11.0514 4.5675 9.94012 4.5675 9.25762 5.25L6.99137 7.51625C6.30887 8.19875 6.30887 9.31 6.99137 9.9925L9.61637 12.6175V16.6338H11.3664V12.6175C11.3664 12.1538 11.1826 11.7075 10.8501 11.3838L9.10012 9.63375L11.3664 7.3675L13.1164 9.1175C13.4489 9.45 13.8864 9.63375 14.3501 9.63375L14.3589 9.625ZM14.0001 1.75C13.536 1.75 13.0909 1.93437 12.7627 2.26256C12.4345 2.59075 12.2501 3.03587 12.2501 3.5C12.2501 3.96413 12.4345 4.40925 12.7627 4.73744C13.0909 5.06563 13.536 5.25 14.0001 5.25C14.4642 5.25 14.9094 5.06563 15.2376 4.73744C15.5657 4.40925 15.7501 3.96413 15.7501 3.5C15.7501 3.03587 15.5657 2.59075 15.2376 2.26256C14.9094 1.93437 14.4642 1.75 14.0001 1.75Z" fill="#D1AEB6"/>
<path d="M5.25 11.875C6.90761 11.875 8.25 13.2174 8.25 14.875C8.25 16.5326 6.90761 17.875 5.25 17.875C3.59239 17.875 2.25 16.5326 2.25 14.875C2.25 13.2174 3.59239 11.875 5.25 11.875ZM15.75 11.875C17.4076 11.875 18.75 13.2174 18.75 14.875C18.75 16.5326 17.4076 17.875 15.75 17.875C14.0924 17.875 12.75 16.5326 12.75 14.875C12.75 13.2174 14.0924 11.875 15.75 11.875ZM5.25 12.625C4.01136 12.625 3 13.6364 3 14.875C3 16.1136 4.01136 17.125 5.25 17.125C6.48864 17.125 7.5 16.1136 7.5 14.875C7.5 13.6364 6.48864 12.625 5.25 12.625ZM15.75 12.625C14.5114 12.625 13.5 13.6364 13.5 14.875C13.5 16.1136 14.5114 17.125 15.75 17.125C16.9886 17.125 18 16.1136 18 14.875C18 13.6364 16.9886 12.625 15.75 12.625Z" fill="white" stroke="#A86A78"/>
</svg>
