<?xml version="1.0" encoding="UTF-8"?>
<svg id="_レイヤー_2" data-name="レイヤー 2" xmlns="http://www.w3.org/2000/svg" viewBox="0 0 340.46 396.07">
  <defs>
    <style>
      .cls-1 {
        fill: #f3efe6;
      }

      .cls-2 {
        fill: #69563a;
      }

      .cls-3 {
        fill: #fff;
      }

      .cls-4 {
        fill: #c2a070;
      }

      .cls-5 {
        fill: #d6c093;
      }

      .cls-6 {
        fill: #363f45;
      }

      .cls-7 {
        fill: none;
        stroke: #363f45;
        stroke-miterlimit: 10;
        stroke-width: 4px;
      }
    </style>
  </defs>
  <g id="_レイヤー_1-2" data-name="レイヤー 1">
    <g>
      <path class="cls-4" d="m56.32,314.28c-24-33.08-78.59-110.67-46.46-166.93,1.78-3.11,4.81-5.28,8.33-5.96,11.55-2.22,37.64-1.68,48.99,43.74,9.78,39.11,2.4,87.67-3.73,116.13-2.19,10.15-1.03,21.42-7.13,13.02Z"/>
      <path class="cls-4" d="m285.51,311.61c24-33.08,77.02-108,44.89-164.26-1.78-3.11-4.81-5.28-8.33-5.96-11.55-2.22-37.64-1.68-48.99,43.74-9.78,39.11-2.4,87.67,3.73,116.13,2.19,10.15,2.6,18.75,8.69,10.35Z"/>
      <path class="cls-2" d="m82.31,360.51s-12.54,11.18-12.37,16.49c.19,6,15.99-1.95,15.99-1.95,0,0-9.49,43.51,13.82,5.34,0,0,13.73,33.63,13.73-4.04l-31.16-15.84Z"/>
      <path class="cls-2" d="m253.06,355.48s15.95,7.23,17.44,12.37c1.68,5.81-16.48,2.58-16.48,2.58,0,0,23.03,39.08-12.05,8.97,0,0-3.12,36.07-14.9-.05l25.98-23.86Z"/>
      <path class="cls-4" d="m112.91,380.05c-35.71-11.73-94.69-69.79-52.44-213.98,0,0-55.31-162.2,110.08-162.2v379.03s-36.18,4.19-57.64-2.86Z"/>
      <path class="cls-4" d="m228.05,380.05c35.71-11.73,94.69-69.79,52.44-213.98,0,0,55.31-162.2-110.08-162.2v379.03s36.18,4.19,57.64-2.86Z"/>
      <path class="cls-5" d="m93.75,348.48c-18.11-12.24-64.44-156.33,22.3-152.59h56.38v161.76s-55.11,6.76-78.68-9.18Z"/>
      <path class="cls-5" d="m250.9,348.48c18.11-12.24,64.44-156.33-22.3-152.59h-56.38v161.76s55.11,6.76,78.68-9.18Z"/>
      <circle class="cls-6" cx="170.31" cy="194.25" r="10.62"/>
      <path class="cls-6" d="m165.29,186.9s-30.39-9.13-54.58-.96c0,0-8.17,17.32,3.27,33.66,0,0,32.2-19.81,49.52-18.06l1.78-14.64Z"/>
      <path class="cls-6" d="m175.94,186.9s30.39-9.13,54.58-.96c0,0,8.17,17.32-3.27,33.66,0,0-32.2-19.81-49.52-18.06l-1.78-14.64Z"/>
      <path class="cls-5" d="m170.41,53.04s-73.12-41.7-99.92,25.38c0,0-30.82,63.15,38,80.27,0,0,41.46,9.27,65.18-17.5l-3.26-88.15Z"/>
      <path class="cls-5" d="m170.56,53.04s73.12-41.7,99.92,25.38c0,0,30.82,63.15-38,80.27,0,0-41.46,9.27-65.18-17.5l3.26-88.15Z"/>
      <path class="cls-2" d="m174.96,169.93l14.68-32.41c1.25-2.75-.77-5.88-3.79-5.88h-29.36c-3.02,0-5.04,3.12-3.79,5.88l14.68,32.41c1.48,3.26,6.1,3.26,7.58,0Z"/>
      <circle class="cls-3" cx="234.32" cy="114.34" r="29.06"/>
      <circle class="cls-3" cx="107.32" cy="114.34" r="29.06"/>
      <path class="cls-7" d="m92.55,119.67s14.34-21.22,30,0"/>
      <path class="cls-7" d="m219.55,119.67s14.34-21.22,30,0"/>
      <path class="cls-1" d="m96.75,243.82s2.47,15.42,18.5,14.18,19.12-14.18,19.12-14.18"/>
      <path class="cls-1" d="m156.75,243.82s2.47,15.42,18.5,14.18,19.12-14.18,19.12-14.18"/>
      <path class="cls-1" d="m216.75,243.82s2.47,15.42,18.5,14.18,19.12-14.18,19.12-14.18"/>
      <path class="cls-1" d="m125.75,278.82s2.47,15.42,18.5,14.18,19.12-14.18,19.12-14.18"/>
      <path class="cls-1" d="m185.75,278.82s2.47,15.42,18.5,14.18,19.12-14.18,19.12-14.18"/>
      <path class="cls-4" d="m57.84,67.2s-14.49-28.52-3.62-29.88,18.11,3.88,18.11,3.88"/>
      <path class="cls-4" d="m66.6,50.6S63.65,1.41,74.51.05s21.74,25.41,21.74,25.41"/>
      <path class="cls-4" d="m276.95,67.2s14.49-28.52,3.62-29.88-18.11,3.88-18.11,3.88"/>
      <path class="cls-4" d="m268.23,50.6S271.19,1.41,260.32.05c-10.86-1.36-21.74,25.41-21.74,25.41"/>
    </g>
  </g>
</svg>