<?xml version="1.0" encoding="UTF-8"?>
<svg id="_レイヤー_2" data-name="レイヤー 2" xmlns="http://www.w3.org/2000/svg" viewBox="0 0 378.05 639.93">
  <defs>
    <style>
      .cls-1 {
        fill: #f3efe6;
      }

      .cls-2 {
        fill: #69563a;
      }

      .cls-3 {
        fill: #e6edf6;
      }

      .cls-4 {
        fill: #fff;
      }

      .cls-5, .cls-6 {
        fill: #c2a070;
      }

      .cls-7 {
        fill: #d6c093;
      }

      .cls-8 {
        fill: #436f9b;
      }

      .cls-9 {
        fill: #363f45;
      }

      .cls-6 {
        stroke: #d6c093;
        stroke-miterlimit: 10;
        stroke-width: 2px;
      }
    </style>
  </defs>
  <g id="_レイヤー_1-2" data-name="レイヤー 1">
    <g>
      <path class="cls-5" d="m237.29,409.8c-12.08,39.04-40.48,102.67,8.04,145.6,2.69,2.38,1.92,10.16,5.47,9.67,11.64-1.62,43.94-81.35,39.36-105.49-5.31-28-27.73-62.06-45.7-50.49-8.72,5.62-4.1-9.21-7.17.71Z"/>
      <path class="cls-2" d="m48.43,604.36s-12.54,11.18-12.37,16.49c.19,6,15.99-1.95,15.99-1.95,0,0-9.49,43.51,13.82,5.34,0,0,13.73,33.63,13.73-4.04l-31.16-15.84Z"/>
      <path class="cls-2" d="m219.19,599.34s15.95,7.23,17.44,12.37c1.68,5.81-16.48,2.58-16.48,2.58,0,0,23.03,39.08-12.05,8.97,0,0-3.12,36.07-14.9-.05l25.98-23.86Z"/>
      <g>
        <path class="cls-5" d="m79.04,623.91c-35.71-11.73-94.69-69.79-52.44-213.98,0,0,97.62-3.03,110.08-3.04v219.87s-36.18,4.19-57.64-2.86Z"/>
        <path class="cls-5" d="m194.44,623.91c35.71-11.73,94.69-69.79,52.44-213.98,0,0-97.62-3.03-110.08-3.04v219.87s36.18,4.19,57.64-2.86Z"/>
      </g>
      <path class="cls-7" d="m59.87,592.34c-18.11-12.24-64.44-156.33,22.3-152.59h56.38v161.76s-55.11,6.76-78.68-9.18Z"/>
      <path class="cls-7" d="m217.03,592.34c18.11-12.24,64.44-156.33-22.3-152.59h-56.38v161.76s55.11,6.76,78.68-9.18Z"/>
      <g>
        <g>
          <path class="cls-5" d="m21.85,387.89S-4.45,218.55,158.42,247.27l-33.06,187.48s-89.25,46.15-103.51-46.86Z"/>
          <path class="cls-5" d="m238.22,426.04s82.64-150.13-80.24-178.85l-33.06,187.48s71.98,19.62,113.3-8.63Z"/>
        </g>
        <path class="cls-5" d="m36.43,290.06s-9.31-30.6,1.62-30.05c10.94.55,17.16,6.97,17.16,6.97"/>
        <path class="cls-5" d="m47.94,275.23s5.63-48.95,16.56-48.4c10.94.55,17,28.8,17,28.8"/>
        <path class="cls-5" d="m252.21,328.11s19.22-25.57,8.75-28.79c-10.46-3.22-18.51.68-18.51.68"/>
        <path class="cls-5" d="m246.51,310.24s11.45-47.93.99-51.15c-10.46-3.22-25.83,21.25-25.83,21.25"/>
      </g>
      <circle class="cls-9" cx="136.44" cy="438.11" r="10.62"/>
      <path class="cls-9" d="m131.41,430.75s-30.39-9.13-54.58-.96c0,0-8.17,17.32,3.27,33.66,0,0,32.2-19.81,49.52-18.06l1.78-14.64Z"/>
      <path class="cls-9" d="m142.07,430.75s30.39-9.13,54.58-.96c0,0,8.17,17.32-3.27,33.66,0,0-32.2-19.81-49.52-18.06l-1.78-14.64Z"/>
      <g>
        <path class="cls-7" d="m151.91,295.67s-64.77-53.76-102.81,7.64c0,0-41.32,56.84,23.49,85.65,0,0,39.22,16.33,67.23-5.91l12.1-87.37Z"/>
        <path class="cls-7" d="m152.06,295.7s79.25-28.37,94,42.34c0,0,19.39,67.54-51.36,72.45,0,0-42.44,1.93-61.15-28.55l18.51-86.24Z"/>
        <path class="cls-2" d="m135.11,411.4l20.08-29.37c1.71-2.5.27-5.92-2.71-6.45l-28.91-5.1c-2.98-.53-5.5,2.2-4.75,5.13l8.83,34.47c.89,3.47,5.45,4.27,7.47,1.32Z"/>
        <circle class="cls-4" cx="202.23" cy="366.79" r="29.06"/>
        <circle class="cls-4" cx="79.13" cy="345.09" r="29.06"/>
        <g>
          <path class="cls-9" d="m67.87,350.51c-6.36-10.76-2.61-22.55,4.42-25.82,5.7-2.65,13.59-1.57,17.07,4.27,2.14,3.59,2.85,8.21,1.32,14-.85,3.22-2.55,8.79-10.4,12.33-4.31,1.94-8.77.18-12.41-4.78Z"/>
          <circle class="cls-4" cx="73.98" cy="329.39" r="4.7"/>
        </g>
        <g>
          <path class="cls-9" d="m187.87,370.51c-6.36-10.76-2.61-22.55,4.42-25.82,5.7-2.65,13.59-1.57,17.07,4.27,2.14,3.59,2.85,8.21,1.32,14-.85,3.22-2.55,8.79-10.4,12.33-4.31,1.94-8.77.18-12.41-4.78Z"/>
          <circle class="cls-4" cx="193.98" cy="349.39" r="4.7"/>
        </g>
      </g>
      <path class="cls-5" d="m24.18,390.97S-9.25,462.22,3.47,471.48s12.93-8.03,12.93-8.03l26.72-82.12-18.94,9.64Z"/>
      <path class="cls-6" d="m5.55,449.99c20.77-35.19,34.57-70.69,98.98-63.65,3.56.39,6.76,2.3,8.79,5.26,6.64,9.71,16.54,33.85-20.58,62.37-31.97,24.56-55.07,25.66-84.18,26-10.86.13-8.27-21.04-3-29.98Z"/>
      <path class="cls-1" d="m62.87,487.68s2.47,15.42,18.5,14.18,19.12-14.18,19.12-14.18"/>
      <path class="cls-1" d="m122.87,487.68s2.47,15.42,18.5,14.18,19.12-14.18,19.12-14.18"/>
      <path class="cls-1" d="m182.87,487.68s2.47,15.42,18.5,14.18,19.12-14.18,19.12-14.18"/>
      <path class="cls-1" d="m91.87,522.68s2.47,15.42,18.5,14.18,19.12-14.18,19.12-14.18"/>
      <path class="cls-1" d="m151.87,522.68s2.47,15.42,18.5,14.18,19.12-14.18,19.12-14.18"/>
    </g>
    <g>
      <circle class="cls-3" cx="145.52" cy="227.53" r="6.89"/>
      <circle class="cls-3" cx="164.52" cy="213.53" r="10"/>
      <g>
        <ellipse class="cls-3" cx="157.08" cy="124.76" rx="65.8" ry="40.91"/>
        <ellipse class="cls-3" cx="296.81" cy="101.16" rx="51.32" ry="82.53" transform="translate(131.33 367.53) rotate(-76.97)"/>
        <ellipse class="cls-3" cx="196.98" cy="66.68" rx="53.72" ry="86.4" transform="translate(87.61 243.55) rotate(-76.97)"/>
        <ellipse class="cls-3" cx="199.48" cy="168.12" rx="53.09" ry="33.01"/>
        <ellipse class="cls-3" cx="258.18" cy="147.07" rx="42.22" ry="67.9" transform="translate(14.4 316.95) rotate(-64.54)"/>
        <ellipse class="cls-3" cx="191.35" cy="116.63" rx="80.07" ry="49.79"/>
        <ellipse class="cls-3" cx="252.11" cy="74.91" rx="96.78" ry="66.02" transform="translate(-3.68 136.09) rotate(-30)"/>
      </g>
      <circle class="cls-8" cx="196.52" cy="107.53" r="7"/>
      <circle class="cls-8" cx="232.52" cy="107.53" r="7"/>
      <circle class="cls-8" cx="268.52" cy="107.53" r="7"/>
    </g>
  </g>
</svg>