<?xml version="1.0" encoding="UTF-8"?>
<svg id="_レイヤー_2" data-name="レイヤー 2" xmlns="http://www.w3.org/2000/svg" viewBox="0 0 329.34 396.07">
  <defs>
    <style>
      .cls-1 {
        fill: #f3efe6;
      }

      .cls-2 {
        fill: #69563a;
      }

      .cls-3 {
        fill: #fff;
      }

      .cls-4 {
        fill: #c2a070;
      }

      .cls-5 {
        fill: #d6c093;
      }

      .cls-6 {
        fill: #363f45;
      }
    </style>
  </defs>
  <g id="_レイヤー_1-2" data-name="レイヤー 1">
    <g>
      <path class="cls-4" d="m64.04,167.12c12.08,39.04,40.48,102.67-8.04,145.6-2.69,2.38-1.92,10.16-5.47,9.67-11.64-1.62-54.77-97.18-50.19-121.33,5.31-28,38.56-46.23,56.53-34.65,8.72,5.62,4.1-9.21,7.17.71Z"/>
      <path class="cls-4" d="m265.3,167.12c-12.08,39.04-40.48,102.67,8.04,145.6,2.69,2.38,1.92,10.16,5.47,9.67,11.64-1.62,54.77-97.18,50.19-121.33-5.31-28-38.56-46.23-56.53-34.65-8.72,5.62-4.1-9.21-7.17.71Z"/>
      <path class="cls-2" d="m76.27,360.51s-12.54,11.18-12.37,16.49c.19,6,15.99-1.95,15.99-1.95,0,0-9.49,43.51,13.82,5.34,0,0,13.73,33.63,13.73-4.04l-31.16-15.84Z"/>
      <path class="cls-2" d="m247.03,355.48s15.95,7.23,17.44,12.37c1.68,5.81-16.48,2.58-16.48,2.58,0,0,23.03,39.08-12.05,8.97,0,0-3.12,36.07-14.9-.05l25.98-23.86Z"/>
      <path class="cls-4" d="m106.88,380.05c-35.71-11.73-94.69-69.79-52.44-213.98C54.44,166.08-.88,3.88,164.51,3.88v379.03s-36.18,4.19-57.64-2.86Z"/>
      <path class="cls-4" d="m222.02,380.05c35.71-11.73,94.69-69.79,52.44-213.98,0,0,55.31-162.2-110.08-162.2v379.03s36.18,4.19,57.64-2.86Z"/>
      <path class="cls-5" d="m87.71,348.48c-18.11-12.24-64.44-156.33,22.3-152.59h56.38v161.76s-55.11,6.76-78.68-9.18Z"/>
      <path class="cls-5" d="m244.87,348.48c18.11-12.24,64.44-156.33-22.3-152.59h-56.38v161.76s55.11,6.76,78.68-9.18Z"/>
      <circle class="cls-6" cx="164.28" cy="194.25" r="10.62"/>
      <path class="cls-6" d="m159.25,186.9s-30.39-9.13-54.58-.96c0,0-8.17,17.32,3.27,33.66,0,0,32.2-19.81,49.52-18.06l1.78-14.64Z"/>
      <path class="cls-6" d="m169.91,186.9s30.39-9.13,54.58-.96c0,0,8.17,17.32-3.27,33.66,0,0-32.2-19.81-49.52-18.06l-1.78-14.64Z"/>
      <path class="cls-5" d="m164.37,53.04s-73.12-41.7-99.92,25.38c0,0-30.82,63.15,38,80.27,0,0,41.46,9.27,65.18-17.5l-3.26-88.15Z"/>
      <path class="cls-5" d="m164.52,53.04s73.12-41.7,99.92,25.38c0,0,30.82,63.15-38,80.27,0,0-41.46,9.27-65.18-17.5l3.26-88.15Z"/>
      <path class="cls-2" d="m168.92,169.93l14.68-32.41c1.25-2.75-.77-5.88-3.79-5.88h-29.36c-3.02,0-5.04,3.12-3.79,5.88l14.68,32.41c1.48,3.26,6.1,3.26,7.58,0Z"/>
      <circle class="cls-3" cx="228.28" cy="114.34" r="29.06"/>
      <circle class="cls-3" cx="101.28" cy="114.34" r="29.06"/>
      <g>
        <path class="cls-6" d="m96.17,129.08c-6.36-10.76-2.61-22.55,4.42-25.82,5.7-2.65,13.79-1.39,17.07,4.27,2,3.45,2.37,10.4,1.32,14-.64,2.21-1.7,7.62-8.43,11.33-4.14,2.28-10.74,1.18-14.38-3.78Z"/>
        <circle class="cls-3" cx="103.29" cy="111.96" r="4.7"/>
      </g>
      <g>
        <path class="cls-6" d="m214.17,129.08c-6.36-10.76-2.61-22.55,4.42-25.82,5.7-2.65,13.79-1.39,17.07,4.27,2,3.45,2.37,10.4,1.32,14-.64,2.21-1.7,7.62-8.43,11.33-4.14,2.28-10.74,1.18-14.38-3.78Z"/>
        <circle class="cls-3" cx="221.29" cy="111.96" r="4.7"/>
      </g>
      <path class="cls-1" d="m90.72,243.82s2.47,15.42,18.5,14.18,19.12-14.18,19.12-14.18"/>
      <path class="cls-1" d="m150.72,243.82s2.47,15.42,18.5,14.18,19.12-14.18,19.12-14.18"/>
      <path class="cls-1" d="m210.72,243.82s2.47,15.42,18.5,14.18,19.12-14.18,19.12-14.18"/>
      <path class="cls-1" d="m119.72,278.82s2.47,15.42,18.5,14.18,19.12-14.18,19.12-14.18"/>
      <path class="cls-1" d="m179.72,278.82s2.47,15.42,18.5,14.18,19.12-14.18,19.12-14.18"/>
      <path class="cls-4" d="m51.81,67.2s-14.49-28.52-3.62-29.88,18.11,3.88,18.11,3.88"/>
      <path class="cls-4" d="m60.57,50.6S57.61,1.41,68.47.05s21.74,25.41,21.74,25.41"/>
      <path class="cls-4" d="m270.92,67.2s14.49-28.52,3.62-29.88-18.11,3.88-18.11,3.88"/>
      <path class="cls-4" d="m262.19,50.6S265.15,1.41,254.29.05c-10.86-1.36-21.74,25.41-21.74,25.41"/>
    </g>
  </g>
</svg>