<?xml version="1.0" encoding="UTF-8"?>
<svg id="_レイヤー_2" data-name="レイヤー 2" xmlns="http://www.w3.org/2000/svg" viewBox="0 0 260.43 346.15">
  <defs>
    <style>
      .cls-1 {
        fill: #69563a;
      }

      .cls-2 {
        fill: #e6edf6;
      }

      .cls-3 {
        fill: #c2a070;
      }

      .cls-4 {
        fill: #d6c093;
      }

      .cls-5 {
        fill: #363f45;
      }
    </style>
  </defs>
  <g id="_レイヤー_1-2" data-name="レイヤー 1">
    <path class="cls-3" d="m66.73,250.81l-12.42-7.95s-22.18-21.08-11.39-61.68c6.02-22.63,28.79-58.31,54.32-84.2,6.07-6.15,12.06-12.1,17.98-17.81C168.73,27.57,215.77-5.03,246.36.64c0,0,14.19,5.87,14.07,19.33-.19,21.34-27.67,78.66-36.32,92.9,0,0-57.51,99.91-86.69,124.26-12.43,10.37-41.65,24.56-70.68,13.69Z"/>
    <polygon class="cls-2" points="122.71 72.02 120.98 102.61 115.8 78.63 122.71 72.02"/>
    <polygon class="cls-2" points="77.87 119.1 75.88 154.22 70.8 128.63 77.87 119.1"/>
    <polygon class="cls-2" points="165.86 205.35 132.37 215.81 158.24 215.11 165.86 205.35"/>
    <polygon class="cls-2" points="204.24 148.35 172.37 158.81 197.89 157.78 204.24 148.35"/>
    <polygon class="cls-2" points="240.51 85.58 208.37 96.81 234.28 96.15 240.51 85.58"/>
    <path class="cls-4" d="m47.68,253.19S192.9,39.85,243.48,16.05c0,0-140.37,166.73-187.82,243.8l-7.98-6.66Z"/>
    <path class="cls-1" d="m25.57,281.22c-4.35,5.14-29.23,36.02-25.11,64.08.13.89,1.29,1.18,1.81.44,4.78-6.78,20.72-28.75,28.05-30.71,1.11-.3,1.72-1.47,1.32-2.55-2.01-5.37-4.56-16.16,3.92-22.67.5-.39.52-1.15.03-1.55l-8.62-7.15c-.42-.35-1.04-.3-1.4.12Z"/>
    <path class="cls-5" d="m43.65,249.22s-23.1,25.06-26.52,34.54c-.75,2.07-.48,3.68.43,4.95,3.24,4.53,14.64,4.53,16.51,4.53,2.4,0,28.61-34.45,28.61-34.45,0,0-.74-8.96-19.03-9.57Z"/>
  </g>
</svg>