<svg width="21" height="21" viewBox="0 0 21 21" fill="none" xmlns="http://www.w3.org/2000/svg">
<path d="M3.5 18.375C3.01875 18.375 2.60692 18.2038 2.2645 17.8614C1.92208 17.519 1.75058 17.1068 1.75 16.625V14H19.25V16.625C19.25 17.1062 19.0788 17.5184 18.7364 17.8614C18.394 18.2044 17.9818 18.3756 17.5 18.375H3.5ZM9.25312 12.25C8.94687 12.5417 8.38542 12.6875 7.56875 12.6875C6.75208 12.6875 6.19792 12.5417 5.90625 12.25C5.61458 11.9583 5.20625 11.8125 4.68125 11.8125C4.15625 11.8125 3.74062 11.9583 3.43437 12.25C3.12812 12.5417 2.56667 12.6875 1.75 12.6875V10.9375C2.275 10.9375 2.69062 10.7917 2.99687 10.5C3.30312 10.2083 3.86458 10.0625 4.68125 10.0625C5.49792 10.0625 6.05208 10.2083 6.34375 10.5C6.63542 10.7917 7.04375 10.9375 7.56875 10.9375C8.09375 10.9375 8.50937 10.7917 8.81562 10.5C9.12187 10.2083 9.68333 10.0625 10.5 10.0625C11.3167 10.0625 11.8781 10.2083 12.1844 10.5C12.4906 10.7917 12.9062 10.9375 13.4313 10.9375C13.9563 10.9375 14.3646 10.7917 14.6562 10.5C14.9479 10.2083 15.5021 10.0625 16.3187 10.0625C17.1354 10.0625 17.7115 10.2083 18.0469 10.5C18.3823 10.7917 18.7833 10.9375 19.25 10.9375V12.6875C18.4333 12.6875 17.8865 12.5417 17.6094 12.25C17.3323 11.9583 16.9312 11.8125 16.4062 11.8125C15.8813 11.8125 15.4583 11.9583 15.1375 12.25C14.8167 12.5417 14.2479 12.6875 13.4313 12.6875C12.6146 12.6875 12.0531 12.5417 11.7469 12.25C11.4406 11.9583 11.025 11.8125 10.5 11.8125C9.975 11.8125 9.55937 11.9583 9.25312 12.25ZM1.75 8.75V7.875C1.75 6.19792 2.54129 4.90379 4.12387 3.99263C5.70646 3.08146 7.83183 2.62558 10.5 2.625C13.1682 2.62442 15.2938 3.08029 16.877 3.99263C18.4602 4.90496 19.2512 6.19908 19.25 7.875V8.75H1.75Z" fill="#AA8A5E"/>
</svg>
