<svg width="21" height="21" viewBox="0 0 21 21" fill="none" xmlns="http://www.w3.org/2000/svg">
<g clip-path="url(#clip0_2639_5169)">
<path d="M13.125 9.84375H7.875C7.875 9.14756 8.15156 8.47988 8.64384 7.98759C9.13613 7.49531 9.80381 7.21875 10.5 7.21875C11.1962 7.21875 11.8639 7.49531 12.3562 7.98759C12.8484 8.47988 13.125 9.14756 13.125 9.84375Z" stroke="#6E8F8A" stroke-width="1.5" stroke-linecap="round" stroke-linejoin="round"/>
<path d="M8.53125 5.25C8.53125 5.77214 8.73867 6.2729 9.10788 6.64212C9.4771 7.01133 9.97786 7.21875 10.5 7.21875C11.0221 7.21875 11.5229 7.01133 11.8921 6.64212C12.2613 6.2729 12.4688 5.77214 12.4688 5.25C12.4688 4.72786 12.2613 4.2271 11.8921 3.85788C11.5229 3.48867 11.0221 3.28125 10.5 3.28125C9.97786 3.28125 9.4771 3.48867 9.10788 3.85788C8.73867 4.2271 8.53125 4.72786 8.53125 5.25Z" stroke="#6E8F8A" stroke-width="1.5" stroke-linecap="round" stroke-linejoin="round"/>
<path d="M5.90625 0.65625H15.0938C15.0938 0.65625 17.7188 0.65625 17.7188 3.28125V7.21875C17.7188 7.21875 17.7188 9.84375 15.0938 9.84375H5.90625C5.90625 9.84375 3.28125 9.84375 3.28125 7.21875V3.28125C3.28125 3.28125 3.28125 0.65625 5.90625 0.65625ZM1.96875 15.75C1.96875 16.2721 2.17617 16.7729 2.54538 17.1421C2.9146 17.5113 3.41536 17.7188 3.9375 17.7188C4.45964 17.7188 4.9604 17.5113 5.32962 17.1421C5.69883 16.7729 5.90625 16.2721 5.90625 15.75C5.90625 15.2279 5.69883 14.7271 5.32962 14.3579C4.9604 13.9887 4.45964 13.7812 3.9375 13.7812C3.41536 13.7812 2.9146 13.9887 2.54538 14.3579C2.17617 14.7271 1.96875 15.2279 1.96875 15.75Z" stroke="#6E8F8A" stroke-width="1.5" stroke-linecap="round" stroke-linejoin="round"/>
<path d="M7.21875 20.3438C6.90157 19.749 6.42873 19.2517 5.85078 18.9049C5.27283 18.5582 4.6115 18.375 3.9375 18.375C3.2635 18.375 2.60217 18.5582 2.02422 18.9049C1.44627 19.2517 0.973427 19.749 0.65625 20.3438M15.0938 15.75C15.0938 16.2721 15.3012 16.7729 15.6704 17.1421C16.0396 17.5113 16.5404 17.7188 17.0625 17.7188C17.5846 17.7188 18.0854 17.5113 18.4546 17.1421C18.8238 16.7729 19.0312 16.2721 19.0312 15.75C19.0312 15.2279 18.8238 14.7271 18.4546 14.3579C18.0854 13.9887 17.5846 13.7812 17.0625 13.7812C16.5404 13.7812 16.0396 13.9887 15.6704 14.3579C15.3012 14.7271 15.0938 15.2279 15.0938 15.75Z" stroke="#6E8F8A" stroke-width="1.5" stroke-linecap="round" stroke-linejoin="round"/>
<path d="M20.3438 20.3438C20.0266 19.749 19.5537 19.2517 18.9758 18.9049C18.3978 18.5582 17.7365 18.375 17.0625 18.375C16.3885 18.375 15.7272 18.5582 15.1492 18.9049C14.5713 19.2517 14.0984 19.749 13.7812 20.3438M8.53125 15.75C8.53125 16.2721 8.73867 16.7729 9.10788 17.1421C9.4771 17.5113 9.97786 17.7188 10.5 17.7188C11.0221 17.7188 11.5229 17.5113 11.8921 17.1421C12.2613 16.7729 12.4688 16.2721 12.4688 15.75C12.4688 15.2279 12.2613 14.7271 11.8921 14.3579C11.5229 13.9887 11.0221 13.7812 10.5 13.7812C9.97786 13.7812 9.4771 13.9887 9.10788 14.3579C8.73867 14.7271 8.53125 15.2279 8.53125 15.75Z" stroke="#6E8F8A" stroke-width="1.5" stroke-linecap="round" stroke-linejoin="round"/>
<path d="M13.7812 20.3438C13.4641 19.749 12.9912 19.2517 12.4133 18.9049C11.8353 18.5582 11.174 18.375 10.5 18.375C9.826 18.375 9.16467 18.5582 8.58672 18.9049C8.00877 19.2517 7.53593 19.749 7.21875 20.3438" stroke="#6E8F8A" stroke-width="1.5" stroke-linecap="round" stroke-linejoin="round"/>
</g>
<defs>
<clipPath id="clip0_2639_5169">
<rect width="21" height="21" fill="white"/>
</clipPath>
</defs>
</svg>
