<svg width="21" height="21" viewBox="0 0 21 21" fill="none" xmlns="http://www.w3.org/2000/svg">
<g clip-path="url(#clip0_2639_5177)">
<path fill-rule="evenodd" clip-rule="evenodd" d="M10.22 0.462882C9.46602 0.462882 8.74293 0.762399 8.20978 1.29554C7.67664 1.82868 7.37712 2.55178 7.37712 3.30576C7.37712 4.05973 7.67664 4.78283 8.20978 5.31597C8.74293 5.84912 9.46602 6.14863 10.22 6.14863C10.974 6.14863 11.6971 5.84912 12.2302 5.31597C12.7634 4.78283 13.0629 4.05973 13.0629 3.30576C13.0629 2.55178 12.7634 1.82868 12.2302 1.29554C11.6971 0.762399 10.974 0.462882 10.22 0.462882ZM14.6195 8.55663L13.895 8.91976L16.3389 14.0779C16.429 14.259 16.7011 14.4401 16.8814 14.3491L19.3314 13.7156C20.055 13.5345 20.7795 13.9869 20.9598 14.7114C21.1409 15.435 20.6885 16.1595 19.9649 16.3406L17.5149 16.9741C17.2436 17.0643 16.9724 17.0643 16.7011 17.0643C15.3431 17.0643 14.1671 16.2505 13.7148 14.9826L13.5336 14.4401L11.361 15.8883C11.3141 15.8912 11.27 15.9111 11.2368 15.9443C11.2036 15.9775 11.1836 16.0217 11.1807 16.0685L9.91375 19.7225C9.6425 20.265 9.18925 20.5371 8.64675 20.5371C8.46562 20.5371 8.2845 20.5371 8.10425 20.447C7.37975 20.0848 7.10763 19.3611 7.37975 18.6366L8.64675 14.9826C8.918 14.4401 9.28025 13.9878 9.82275 13.6255L12.4478 11.9061L11.452 10.0958L10.185 10.7293C9.00813 11.2718 7.56 11.0915 6.56512 10.0958L4.8965 8.41051C4.354 7.86801 4.354 7.05251 4.8965 6.51001C5.439 5.96751 6.25362 5.96751 6.797 6.51001L8.46562 8.19526C8.64675 8.37638 8.827 8.37638 9.00813 8.28626L11.452 7.01926L13.4426 6.02351C14.2572 5.66126 15.0719 5.57113 15.8865 5.84238C16.7003 6.11363 17.3346 6.74713 17.696 7.47163L18.963 9.87526C19.2343 10.5088 18.963 11.3234 18.3295 11.6856C17.6531 12.0234 16.9181 11.8064 16.52 11.1423L15.253 8.73863C15.0719 8.55751 14.8006 8.46651 14.6195 8.55663ZM6.87225 15.8883L7.266 15.6258L7.61338 14.6256C7.62854 14.5813 7.64692 14.5375 7.6685 14.4944C8.0115 13.8075 8.49187 13.1994 9.21638 12.7164L9.22338 12.7111L10.7336 11.7224L10.7161 11.6874L10.6741 11.7084L10.6566 11.7171L10.6435 11.7233C9.75694 12.1328 8.75833 12.2321 7.8085 12.005L5.334 13.6264C4.79063 13.9886 4.42837 14.4401 4.15712 14.9835L2.89013 18.6375C2.61888 19.362 2.89013 20.0856 3.61375 20.4479C3.79488 20.538 3.976 20.538 4.15712 20.538C4.69963 20.538 5.15287 20.2668 5.42412 19.7243L6.69112 16.0694C6.69112 15.9793 6.78125 15.8883 6.87225 15.8883ZM2.30737 6.51001L3.40112 7.61426C3.437 8.18038 3.67762 8.73688 4.12125 9.18138L5.6665 10.7424C4.49487 11.2691 3.0625 11.0836 2.0755 10.0958L0.406875 8.41051C-0.135625 7.86801 -0.135625 7.05251 0.406875 6.51001C0.95025 5.96751 1.76488 5.96751 2.30737 6.51001ZM7.14962 0.841757C6.5877 1.53992 6.28197 2.40955 6.28338 3.30576C6.28338 3.98913 6.4575 4.63226 6.76463 5.19313C5.90538 4.83438 4.90088 4.99888 4.17462 5.68576C3.54836 5.28376 3.1047 4.65222 2.9389 3.92674C2.77309 3.20126 2.89837 2.43969 3.28783 1.80556C3.6773 1.17142 4.29989 0.715284 5.02192 0.535082C5.74396 0.354881 6.50787 0.464987 7.14962 0.841757Z" fill="#A86A78"/>
</g>
<defs>
<clipPath id="clip0_2639_5177">
<rect width="21" height="21" fill="white"/>
</clipPath>
</defs>
</svg>
