<svg width="21" height="21" viewBox="0 0 21 21" fill="none" xmlns="http://www.w3.org/2000/svg">
<path d="M17.875 1.375V19.625H17.125V2.125H4.75V13.4795L4 13.3223V1.375H17.875ZM4.75 18.0801V19.625H4V17.9229L4.75 18.0801ZM11.6729 4.68262C12.2209 4.68281 12.6601 5.12561 12.6602 5.66113C12.6602 6.20054 12.2171 6.64824 11.6729 6.64844C11.1391 6.64844 10.6934 6.20258 10.6934 5.66113C10.6934 5.4016 10.7969 5.15227 10.9805 4.96875C11.164 4.78535 11.4134 4.68262 11.6729 4.68262ZM11.8047 15.4482L11.6494 15.2998L10.0918 13.8213L9.45312 13.2148L9.25977 14.0732L8.63184 16.8525L4.41211 16.0137L4.5127 15.5088L7.65234 16.1523L8.14551 16.2539L8.24316 15.7588L9.4248 9.75684L9.60059 8.85938L8.75 9.19531L7.41992 9.71973L7.10352 9.84473V12.1875H6.625V9.55273L10.1055 8.07422L10.5781 8.01758C10.8879 8.02371 11.1764 8.19738 11.3926 8.53125L12.1436 9.70996C12.7605 10.7891 13.8967 11.5379 15.25 11.6875V12.1611C13.9687 12.0313 12.8209 11.4115 12.0508 10.5225L11.3799 9.74805L11.1816 10.7539L10.7441 12.9756L10.6914 13.2451L10.8896 13.4346L12.2842 14.7656V19.625H11.8047V15.4482Z" fill="#9284C2" stroke="#9284C2"/>
</svg>
