<svg width="25" height="25" viewBox="0 0 25 25" fill="none" xmlns="http://www.w3.org/2000/svg">
<path fill-rule="evenodd" clip-rule="evenodd" d="M21.1864 3.79285C21.491 3.79285 21.7831 3.91384 21.9985 4.12922C22.2138 4.34459 22.3348 4.6367 22.3348 4.94128V9.81372C22.3348 10.1183 22.2138 10.4104 21.9985 10.6258C21.7831 10.8412 21.491 10.9622 21.1864 10.9622H16.3139C16.0094 10.9622 15.7173 10.8412 15.5019 10.6258C15.2865 10.4104 15.1655 10.1183 15.1655 9.81372C15.1655 9.50914 15.2865 9.21703 15.5019 9.00165C15.7173 8.78628 16.0094 8.66528 16.3139 8.66528H18.4118L17.1255 7.3775C16.3781 6.62987 15.4688 6.06421 14.4678 5.72432C13.4668 5.38442 12.401 5.27939 11.3529 5.41736C10.3048 5.55532 9.30254 5.93259 8.42361 6.51996C7.54468 7.10733 6.81268 7.88905 6.28426 8.80463C6.13197 9.0686 5.88105 9.26127 5.5867 9.34024C5.29236 9.41921 4.9787 9.37801 4.71473 9.22572C4.45075 9.07343 4.25809 8.82251 4.17912 8.52817C4.10015 8.23382 4.14134 7.92016 4.29363 7.65619C4.99829 6.43549 5.97436 5.39329 7.14631 4.61023C8.31826 3.82717 9.65467 3.32425 11.0521 3.14039C12.4496 2.95653 13.8706 3.09666 15.2052 3.54994C16.5398 4.00322 17.7522 4.75749 18.7486 5.75438L20.0379 7.04063V4.94128C20.0379 4.6367 20.1589 4.34459 20.3743 4.12922C20.5897 3.91384 20.8818 3.79285 21.1864 3.79285ZM19.7914 15.2772C20.0544 15.4296 20.2463 15.6801 20.3249 15.9737C20.4036 16.2674 20.3626 16.5802 20.211 16.8437C19.5062 18.0643 18.53 19.1063 17.358 19.8893C16.186 20.6722 14.8495 21.1749 13.4521 21.3586C12.0547 21.5424 10.6337 21.4021 9.29917 20.9487C7.96463 20.4953 6.75229 19.7409 5.75598 18.744L4.46973 17.4577V19.5571C4.46973 19.8617 4.34873 20.1538 4.13336 20.3691C3.91798 20.5845 3.62587 20.7055 3.32129 20.7055C3.0167 20.7055 2.72459 20.5845 2.50922 20.3691C2.29385 20.1538 2.17285 19.8617 2.17285 19.5571V14.6862C2.17285 14.3816 2.29385 14.0895 2.50922 13.8741C2.72459 13.6587 3.0167 13.5377 3.32129 13.5377H8.19219C8.49678 13.5377 8.78889 13.6587 9.00426 13.8741C9.21964 14.0895 9.34063 14.3816 9.34063 14.6862C9.34063 14.9907 9.21964 15.2829 9.00426 15.4982C8.78889 15.7136 8.49678 15.8346 8.19219 15.8346H6.09438L7.38216 17.1224C8.12953 17.87 9.0389 18.4357 10.0399 18.7756C11.0409 19.1155 12.1067 19.2205 13.1548 19.0825C14.2028 18.9446 15.2051 18.5673 16.0841 17.9799C16.963 17.3926 17.695 16.6108 18.2234 15.6953C18.299 15.5647 18.3996 15.4504 18.5194 15.3588C18.6392 15.2671 18.7758 15.2 18.9216 15.1611C19.0673 15.1223 19.2193 15.1126 19.3688 15.1325C19.5183 15.1524 19.6609 15.2016 19.7914 15.2772Z" fill="#63747E"/>
</svg>
