<svg width="25" height="25" viewBox="0 0 25 25" fill="none" xmlns="http://www.w3.org/2000/svg">
<path d="M19.9062 3.0625H17.6094V2.29688C17.6094 2.09382 17.5287 1.89908 17.3851 1.7555C17.2415 1.61191 17.0468 1.53125 16.8438 1.53125C16.6407 1.53125 16.446 1.61191 16.3024 1.7555C16.1588 1.89908 16.0781 2.09382 16.0781 2.29688V3.0625H8.42188V2.29688C8.42188 2.09382 8.34121 1.89908 8.19763 1.7555C8.05405 1.61191 7.85931 1.53125 7.65625 1.53125C7.45319 1.53125 7.25845 1.61191 7.11487 1.7555C6.97129 1.89908 6.89062 2.09382 6.89062 2.29688V3.0625H4.59375C4.18764 3.0625 3.79816 3.22383 3.51099 3.51099C3.22383 3.79816 3.0625 4.18764 3.0625 4.59375V19.9062C3.0625 20.3124 3.22383 20.7018 3.51099 20.989C3.79816 21.2762 4.18764 21.4375 4.59375 21.4375H19.9062C20.3124 21.4375 20.7018 21.2762 20.989 20.989C21.2762 20.7018 21.4375 20.3124 21.4375 19.9062V4.59375C21.4375 4.18764 21.2762 3.79816 20.989 3.51099C20.7018 3.22383 20.3124 3.0625 19.9062 3.0625ZM8.03906 17.6094C7.81192 17.6094 7.58988 17.542 7.40103 17.4158C7.21217 17.2896 7.06497 17.1103 6.97804 16.9004C6.89112 16.6906 6.86838 16.4597 6.91269 16.2369C6.957 16.0141 7.06638 15.8095 7.22699 15.6489C7.38761 15.4883 7.59224 15.3789 7.81501 15.3346C8.03779 15.2903 8.2687 15.313 8.47855 15.3999C8.6884 15.4868 8.86776 15.634 8.99395 15.8229C9.12015 16.0118 9.1875 16.2338 9.1875 16.4609C9.1875 16.7655 9.0665 17.0576 8.85113 17.273C8.63576 17.4884 8.34365 17.6094 8.03906 17.6094ZM12.25 17.6094C12.0229 17.6094 11.8008 17.542 11.612 17.4158C11.4231 17.2896 11.2759 17.1103 11.189 16.9004C11.1021 16.6906 11.0793 16.4597 11.1236 16.2369C11.1679 16.0141 11.2773 15.8095 11.4379 15.6489C11.5985 15.4883 11.8032 15.3789 12.026 15.3346C12.2487 15.2903 12.4796 15.313 12.6895 15.3999C12.8993 15.4868 13.0787 15.634 13.2049 15.8229C13.3311 16.0118 13.3984 16.2338 13.3984 16.4609C13.3984 16.7655 13.2774 17.0576 13.0621 17.273C12.8467 17.4884 12.5546 17.6094 12.25 17.6094ZM12.25 13.7812C12.0229 13.7812 11.8008 13.7139 11.612 13.5877C11.4231 13.4615 11.2759 13.2821 11.189 13.0723C11.1021 12.8625 11.0793 12.6315 11.1236 12.4088C11.1679 12.186 11.2773 11.9814 11.4379 11.8207C11.5985 11.6601 11.8032 11.5508 12.026 11.5064C12.2487 11.4621 12.4796 11.4849 12.6895 11.5718C12.8993 11.6587 13.0787 11.8059 13.2049 11.9948C13.3311 12.1836 13.3984 12.4057 13.3984 12.6328C13.3984 12.9374 13.2774 13.2295 13.0621 13.4449C12.8467 13.6603 12.5546 13.7812 12.25 13.7812ZM16.4609 17.6094C16.2338 17.6094 16.0118 17.542 15.8229 17.4158C15.634 17.2896 15.4868 17.1103 15.3999 16.9004C15.313 16.6906 15.2903 16.4597 15.3346 16.2369C15.3789 16.0141 15.4883 15.8095 15.6489 15.6489C15.8095 15.4883 16.0141 15.3789 16.2369 15.3346C16.4597 15.2903 16.6906 15.313 16.9004 15.3999C17.1103 15.4868 17.2896 15.634 17.4158 15.8229C17.542 16.0118 17.6094 16.2338 17.6094 16.4609C17.6094 16.7655 17.4884 17.0576 17.273 17.273C17.0576 17.4884 16.7655 17.6094 16.4609 17.6094ZM16.4609 13.7812C16.2338 13.7812 16.0118 13.7139 15.8229 13.5877C15.634 13.4615 15.4868 13.2821 15.3999 13.0723C15.313 12.8625 15.2903 12.6315 15.3346 12.4088C15.3789 12.186 15.4883 11.9814 15.6489 11.8207C15.8095 11.6601 16.0141 11.5508 16.2369 11.5064C16.4597 11.4621 16.6906 11.4849 16.9004 11.5718C17.1103 11.6587 17.2896 11.8059 17.4158 11.9948C17.542 12.1836 17.6094 12.4057 17.6094 12.6328C17.6094 12.9374 17.4884 13.2295 17.273 13.4449C17.0576 13.6603 16.7655 13.7812 16.4609 13.7812ZM19.9062 7.65625H4.59375V4.59375H6.89062V5.35938C6.89062 5.56243 6.97129 5.75717 7.11487 5.90075C7.25845 6.04434 7.45319 6.125 7.65625 6.125C7.85931 6.125 8.05405 6.04434 8.19763 5.90075C8.34121 5.75717 8.42188 5.56243 8.42188 5.35938V4.59375H16.0781V5.35938C16.0781 5.56243 16.1588 5.75717 16.3024 5.90075C16.446 6.04434 16.6407 6.125 16.8438 6.125C17.0468 6.125 17.2415 6.04434 17.3851 5.90075C17.5287 5.75717 17.6094 5.56243 17.6094 5.35938V4.59375H19.9062V7.65625Z" fill="#436F9B"/>
</svg>
