<svg width="25" height="25" viewBox="0 0 25 25" fill="none" xmlns="http://www.w3.org/2000/svg">
<path d="M16.0781 6.125C16.0781 7.14028 15.6748 8.11398 14.9568 8.83189C14.2389 9.54981 13.2652 9.95312 12.25 9.95312C11.2347 9.95312 10.261 9.54981 9.54306 8.83189C8.82515 8.11398 8.42183 7.14028 8.42183 6.125C8.42183 5.10972 8.82515 4.13602 9.54306 3.41811C10.261 2.70019 11.2347 2.29688 12.25 2.29688C13.2652 2.29688 14.2389 2.70019 14.9568 3.41811C15.6748 4.13602 16.0781 5.10972 16.0781 6.125ZM4.59473 20.5371C4.62753 18.5285 5.44849 16.6132 6.88055 15.2043C8.31262 13.7955 10.241 13.0059 12.25 13.0059C14.2589 13.0059 16.1873 13.7955 17.6194 15.2043C19.0514 16.6132 19.8724 18.5285 19.9052 20.5371C17.5039 21.6394 14.8921 22.2078 12.25 22.2031C9.51821 22.2031 6.92529 21.607 4.59473 20.5371Z" stroke="#63747E" stroke-width="1.5" stroke-linecap="round" stroke-linejoin="round"/>
</svg>
