<svg width="25" height="25" viewBox="0 0 25 25" fill="none" xmlns="http://www.w3.org/2000/svg">
<path d="M19.9062 3.0625H17.6094V2.29688C17.6094 2.09382 17.5287 1.89908 17.3851 1.7555C17.2415 1.61191 17.0468 1.53125 16.8438 1.53125C16.6407 1.53125 16.446 1.61191 16.3024 1.7555C16.1588 1.89908 16.0781 2.09382 16.0781 2.29688V3.0625H8.42188V2.29688C8.42188 2.09382 8.34121 1.89908 8.19763 1.7555C8.05405 1.61191 7.85931 1.53125 7.65625 1.53125C7.45319 1.53125 7.25845 1.61191 7.11487 1.7555C6.97129 1.89908 6.89062 2.09382 6.89062 2.29688V3.0625H4.59375C4.18764 3.0625 3.79816 3.22383 3.51099 3.51099C3.22383 3.79816 3.0625 4.18764 3.0625 4.59375V19.9062C3.0625 20.3124 3.22383 20.7018 3.51099 20.989C3.79816 21.2762 4.18764 21.4375 4.59375 21.4375H19.9062C20.3124 21.4375 20.7018 21.2762 20.989 20.989C21.2762 20.7018 21.4375 20.3124 21.4375 19.9062V4.59375C21.4375 4.18764 21.2762 3.79816 20.989 3.51099C20.7018 3.22383 20.3124 3.0625 19.9062 3.0625ZM6.89062 4.59375V5.35938C6.89062 5.56243 6.97129 5.75717 7.11487 5.90075C7.25845 6.04434 7.45319 6.125 7.65625 6.125C7.85931 6.125 8.05405 6.04434 8.19763 5.90075C8.34121 5.75717 8.42188 5.56243 8.42188 5.35938V4.59375H16.0781V5.35938C16.0781 5.56243 16.1588 5.75717 16.3024 5.90075C16.446 6.04434 16.6407 6.125 16.8438 6.125C17.0468 6.125 17.2415 6.04434 17.3851 5.90075C17.5287 5.75717 17.6094 5.56243 17.6094 5.35938V4.59375H19.9062V7.65625H4.59375V4.59375H6.89062ZM19.9062 19.9062H4.59375V9.1875H19.9062V19.9062ZM13.3984 12.6328C13.3984 12.86 13.3311 13.082 13.2049 13.2709C13.0787 13.4597 12.8993 13.6069 12.6895 13.6938C12.4796 13.7808 12.2487 13.8035 12.026 13.7592C11.8032 13.7149 11.5985 13.6055 11.4379 13.4449C11.2773 13.2843 11.1679 13.0796 11.1236 12.8569C11.0793 12.6341 11.1021 12.4032 11.189 12.1933C11.2759 11.9835 11.4231 11.8041 11.612 11.6779C11.8008 11.5517 12.0229 11.4844 12.25 11.4844C12.5546 11.4844 12.8467 11.6054 13.0621 11.8207C13.2774 12.0361 13.3984 12.3282 13.3984 12.6328ZM17.6094 12.6328C17.6094 12.86 17.542 13.082 17.4158 13.2709C17.2896 13.4597 17.1103 13.6069 16.9004 13.6938C16.6906 13.7808 16.4597 13.8035 16.2369 13.7592C16.0141 13.7149 15.8095 13.6055 15.6489 13.4449C15.4883 13.2843 15.3789 13.0796 15.3346 12.8569C15.2903 12.6341 15.313 12.4032 15.3999 12.1933C15.4868 11.9835 15.634 11.8041 15.8229 11.6779C16.0118 11.5517 16.2338 11.4844 16.4609 11.4844C16.7655 11.4844 17.0576 11.6054 17.273 11.8207C17.4884 12.0361 17.6094 12.3282 17.6094 12.6328ZM9.1875 16.4609C9.1875 16.6881 9.12015 16.9101 8.99395 17.099C8.86776 17.2878 8.6884 17.435 8.47855 17.522C8.2687 17.6089 8.03779 17.6316 7.81501 17.5873C7.59224 17.543 7.38761 17.4336 7.22699 17.273C7.06638 17.1124 6.957 16.9078 6.91269 16.685C6.86838 16.4622 6.89112 16.2313 6.97804 16.0215C7.06497 15.8116 7.21217 15.6322 7.40103 15.506C7.58988 15.3799 7.81192 15.3125 8.03906 15.3125C8.34365 15.3125 8.63576 15.4335 8.85113 15.6489C9.0665 15.8642 9.1875 16.1564 9.1875 16.4609ZM13.3984 16.4609C13.3984 16.6881 13.3311 16.9101 13.2049 17.099C13.0787 17.2878 12.8993 17.435 12.6895 17.522C12.4796 17.6089 12.2487 17.6316 12.026 17.5873C11.8032 17.543 11.5985 17.4336 11.4379 17.273C11.2773 17.1124 11.1679 16.9078 11.1236 16.685C11.0793 16.4622 11.1021 16.2313 11.189 16.0215C11.2759 15.8116 11.4231 15.6322 11.612 15.506C11.8008 15.3799 12.0229 15.3125 12.25 15.3125C12.5546 15.3125 12.8467 15.4335 13.0621 15.6489C13.2774 15.8642 13.3984 16.1564 13.3984 16.4609ZM17.6094 16.4609C17.6094 16.6881 17.542 16.9101 17.4158 17.099C17.2896 17.2878 17.1103 17.435 16.9004 17.522C16.6906 17.6089 16.4597 17.6316 16.2369 17.5873C16.0141 17.543 15.8095 17.4336 15.6489 17.273C15.4883 17.1124 15.3789 16.9078 15.3346 16.685C15.2903 16.4622 15.313 16.2313 15.3999 16.0215C15.4868 15.8116 15.634 15.6322 15.8229 15.506C16.0118 15.3799 16.2338 15.3125 16.4609 15.3125C16.7655 15.3125 17.0576 15.4335 17.273 15.6489C17.4884 15.8642 17.6094 16.1564 17.6094 16.4609Z" fill="#63747E"/>
</svg>
