<svg width="25" height="25" viewBox="0 0 25 25" fill="none" xmlns="http://www.w3.org/2000/svg">
<path d="M10.3359 2.29688H5.74219C5.10825 2.29688 4.59375 2.81138 4.59375 3.44531V21.0547C4.59375 21.6886 5.10825 22.2031 5.74219 22.2031H18.7578C19.3918 22.2031 19.9063 21.6886 19.9063 21.0547V11.8672M10.3359 2.29688H10.7188C13.1554 2.29688 15.4923 3.26484 17.2153 4.98783C18.9383 6.71082 19.9063 9.0477 19.9063 11.4844V11.8672M10.3359 2.29688C11.2497 2.29687 12.126 2.65986 12.7721 3.30598C13.4183 3.95211 13.7813 4.82843 13.7813 5.74219V7.27344C13.7813 7.90738 14.2958 8.42188 14.9297 8.42188H16.4609C17.3747 8.42188 18.251 8.78486 18.8971 9.43098C19.5433 10.0771 19.9063 10.9534 19.9063 11.8672M9.1875 15.3125L11.4844 17.6094L15.3125 12.25" stroke="#63747E" stroke-width="1.5" stroke-linecap="round" stroke-linejoin="round"/>
</svg>
