<svg width="25" height="25" viewBox="0 0 25 25" fill="none" xmlns="http://www.w3.org/2000/svg">
<path fill-rule="evenodd" clip-rule="evenodd" d="M9.1875 1.53125H5.74219C4.6846 1.53125 3.82812 2.38875 3.82812 3.44531V21.0547C3.82812 22.1112 4.68563 22.9688 5.74219 22.9688H18.7578C19.8144 22.9688 20.6719 22.1112 20.6719 21.0547V13.0156C20.6719 12.0003 20.2686 11.0266 19.5506 10.3087C18.8327 9.59082 17.859 9.1875 16.8438 9.1875H14.9297C14.422 9.1875 13.9352 8.98584 13.5762 8.62688C13.2173 8.26793 13.0156 7.78108 13.0156 7.27344V5.35938C13.0156 4.34409 12.6123 3.37039 11.8944 2.65248C11.1765 1.93457 10.2028 1.53125 9.1875 1.53125ZM15.9352 12.6951C15.9965 12.6135 16.0408 12.5204 16.0656 12.4214C16.0903 12.3225 16.0951 12.2195 16.0795 12.1187C16.0639 12.0178 16.0284 11.9211 15.9749 11.8342C15.9214 11.7473 15.8511 11.672 15.7681 11.6126C15.685 11.5533 15.591 11.5112 15.4915 11.4887C15.3919 11.4662 15.2889 11.4639 15.1884 11.4818C15.088 11.4997 14.9921 11.5375 14.9065 11.593C14.8209 11.6485 14.7472 11.7205 14.6898 11.8049L11.3864 16.4293L9.72854 14.7715C9.5834 14.6362 9.39144 14.5626 9.19309 14.5661C8.99474 14.5696 8.8055 14.6499 8.66522 14.7902C8.52494 14.9305 8.44459 15.1197 8.44109 15.3181C8.43759 15.5164 8.51122 15.7084 8.64646 15.8535L10.9433 18.1504C11.0219 18.229 11.1167 18.2894 11.221 18.3277C11.3253 18.3659 11.4367 18.381 11.5474 18.3719C11.6582 18.3627 11.7656 18.3296 11.8622 18.2748C11.9589 18.22 12.0424 18.1448 12.1071 18.0545L15.9352 12.6951Z" fill="#436F9B"/>
<path d="M13.2412 1.85388C14.0849 2.8267 14.5486 4.07169 14.5469 5.35942V7.27349C14.5469 7.4848 14.7184 7.6563 14.9297 7.6563H16.8437C18.1315 7.65451 19.3765 8.11821 20.3493 8.96195C19.9 7.25389 19.0051 5.69578 17.7562 4.44691C16.5074 3.19804 14.9493 2.30321 13.2412 1.85388Z" fill="#436F9B"/>
</svg>
