<svg width="28" height="28" viewBox="0 0 28 28" fill="none" xmlns="http://www.w3.org/2000/svg">
<g clip-path="url(#clip0_2860_3960)">
<path d="M7.77799 14C7.77799 12.9889 7.15577 12.1333 6.22244 11.8222V9.17777C7.15577 8.86666 7.77799 8.0111 7.77799 6.99999C7.77799 5.67777 6.76688 4.66666 5.44466 4.66666C4.12244 4.66666 3.11133 5.67777 3.11133 6.99999C3.11133 8.0111 3.73355 8.86666 4.66688 9.17777V11.8222C3.73355 12.1333 3.11133 12.9889 3.11133 14C3.11133 15.0111 3.73355 15.8667 4.66688 16.1778V18.8222C3.73355 19.1333 3.11133 19.9889 3.11133 21C3.11133 22.3222 4.12244 23.3333 5.44466 23.3333C6.76688 23.3333 7.77799 22.3222 7.77799 21C7.77799 19.9889 7.15577 19.1333 6.22244 18.8222V16.1778C7.15577 15.8667 7.77799 15.0111 7.77799 14ZM24.1113 7.77777H11.6669C11.2002 7.77777 10.8891 7.46666 10.8891 6.99999C10.8891 6.53332 11.2002 6.22221 11.6669 6.22221H24.1113C24.578 6.22221 24.8891 6.53332 24.8891 6.99999C24.8891 7.46666 24.578 7.77777 24.1113 7.77777ZM24.1113 14.7778H11.6669C11.2002 14.7778 10.8891 14.4667 10.8891 14C10.8891 13.5333 11.2002 13.2222 11.6669 13.2222H24.1113C24.578 13.2222 24.8891 13.5333 24.8891 14C24.8891 14.4667 24.578 14.7778 24.1113 14.7778ZM24.1113 21.7778H11.6669C11.2002 21.7778 10.8891 21.4667 10.8891 21C10.8891 20.5333 11.2002 20.2222 11.6669 20.2222H24.1113C24.578 20.2222 24.8891 20.5333 24.8891 21C24.8891 21.4667 24.578 21.7778 24.1113 21.7778Z" fill="#7C8D98"/>
</g>
<defs>
<clipPath id="clip0_2860_3960">
<rect width="28" height="28" fill="white"/>
</clipPath>
</defs>
</svg>
