<svg width="21" height="21" viewBox="0 0 21 21" fill="none" xmlns="http://www.w3.org/2000/svg">
<path d="M15.3125 4.15625C15.3125 4.56236 15.1512 4.95184 14.864 5.23901C14.5768 5.52617 14.1874 5.6875 13.7812 5.6875C13.3751 5.6875 12.9857 5.52617 12.6985 5.23901C12.4113 4.95184 12.25 4.56236 12.25 4.15625C12.25 3.75014 12.4113 3.36066 12.6985 3.07349C12.9857 2.78633 13.3751 2.625 13.7812 2.625C14.1874 2.625 14.5768 2.78633 14.864 3.07349C15.1512 3.36066 15.3125 3.75014 15.3125 4.15625Z" fill="#D6C093"/>
<path d="M8.3125 7.5H15.748L15.9473 7.50977C16.4068 7.55431 16.8416 7.748 17.1836 8.06348C17.5745 8.42412 17.8159 8.91826 17.8604 9.44824C17.9048 9.97828 17.7492 10.506 17.4238 10.9268C17.0984 11.3475 16.6267 11.6305 16.1025 11.7207L15.6875 11.792V17.5C15.6875 17.5995 15.6484 17.6953 15.5781 17.7656C15.5078 17.8359 15.412 17.875 15.3125 17.875C15.213 17.875 15.1172 17.836 15.0469 17.7656C14.9766 17.6953 14.9375 17.5995 14.9375 17.5V13.0625H12.625V17.5C12.625 17.5995 12.586 17.6953 12.5156 17.7656C12.4453 17.836 12.3495 17.875 12.25 17.875C12.1505 17.875 12.0547 17.836 11.9844 17.7656C11.914 17.6953 11.875 17.5995 11.875 17.5V8.25H8.3125C8.21304 8.25 8.1172 8.21095 8.04688 8.14062C7.97655 8.0703 7.9375 7.97446 7.9375 7.875C7.9375 7.77554 7.97655 7.6797 8.04688 7.60938C8.1172 7.53905 8.21304 7.5 8.3125 7.5ZM15.6875 11H16.1875C16.5522 11 16.9023 10.8555 17.1602 10.5977C17.418 10.3398 17.5625 9.98967 17.5625 9.625C17.5625 9.26033 17.418 8.91021 17.1602 8.65234C16.9023 8.39448 16.5522 8.25 16.1875 8.25H15.6875V11Z" fill="#D6C093" stroke="#D6C093"/>
<path fill-rule="evenodd" clip-rule="evenodd" d="M2.625 14C2.625 13.7679 2.71719 13.5454 2.88128 13.3813C3.04538 13.2172 3.26794 13.125 3.5 13.125H9.1875C9.41956 13.125 9.64212 13.2172 9.80622 13.3813C9.97031 13.5454 10.0625 13.7679 10.0625 14V17.5C10.0625 17.7321 9.97031 17.9546 9.80622 18.1187C9.64212 18.2828 9.41956 18.375 9.1875 18.375H3.5C3.26794 18.375 3.04538 18.2828 2.88128 18.1187C2.71719 17.9546 2.625 17.7321 2.625 17.5V14ZM4.375 17.0625V14.4375H5.25V17.0625H4.375ZM7.4375 14.4375V17.0625H8.3125V14.4375H7.4375ZM4.8125 12.25C4.8125 12.0179 4.90469 11.7954 5.06878 11.6313C5.23288 11.4672 5.45544 11.375 5.6875 11.375H7C7.23206 11.375 7.45462 11.4672 7.61872 11.6313C7.78281 11.7954 7.875 12.0179 7.875 12.25V13.125H7V12.25H5.6875V13.125H4.8125V12.25Z" fill="#C2A070"/>
</svg>
