<svg width="28" height="28" viewBox="0 0 28 28" fill="none" xmlns="http://www.w3.org/2000/svg">
<path fill-rule="evenodd" clip-rule="evenodd" d="M18.6667 15.1667C19.9043 15.1667 21.0913 14.675 21.9665 13.7999C22.8417 12.9247 23.3333 11.7377 23.3333 10.5C23.3333 9.26236 22.8417 8.07538 21.9665 7.20021C21.0913 6.32504 19.9043 5.83337 18.6667 5.83337C17.429 5.83337 16.242 6.32504 15.3668 7.20021C14.4917 8.07538 14 9.26236 14 10.5C14 11.7377 14.4917 12.9247 15.3668 13.7999C16.242 14.675 17.429 15.1667 18.6667 15.1667ZM20.4167 20.4167V24.5H26.8333V19.1019C24.3513 17.6663 21.5339 16.9125 18.6667 16.9167C17.43 16.9167 16.226 17.0544 15.0675 17.3134L16.1023 20.4167H20.4167Z" fill="#C1D3D0"/>
<path fill-rule="evenodd" clip-rule="evenodd" d="M6.99998 3.50003C5.38881 3.50003 3.93164 4.15219 2.87464 5.20803L1.22498 3.55836C1.98261 2.799 2.88281 2.19681 3.87386 1.78637C4.86492 1.37593 5.9273 1.16534 6.99998 1.16669C9.25514 1.16669 11.298 2.08253 12.775 3.55836L11.1253 5.20803C10.5843 4.66535 9.94127 4.23506 9.23326 3.94192C8.52526 3.64879 7.76626 3.49861 6.99998 3.50003ZM12.5066 15.1667H0.716309L3.82664 24.5H18.6666V22.1667H14.84L12.5066 15.1667ZM5.35147 7.68369C5.78867 7.24636 6.38159 7.00047 6.99998 7.00003C7.61876 7.00016 8.21216 7.24608 8.64964 7.68369L10.3016 6.03403C9.86812 5.60038 9.3534 5.25642 8.78688 5.0218C8.22036 4.78719 7.61315 4.66652 6.99998 4.66669C5.7624 4.66696 4.57561 5.1588 3.70064 6.03403L5.35147 7.68369Z" fill="#6E8F8A"/>
</svg>
